<svg width="24" height="19" viewBox="0 0 24 19" fill="none" xmlns="http://www.w3.org/2000/svg">
<path d="M0 9.5C0 9.22009 0.0903001 8.95164 0.251035 8.75371C0.41177 8.55579 0.629774 8.44459 0.857088 8.44459H21.0724L15.6779 1.80397C15.5169 1.60579 15.4265 1.337 15.4265 1.05674C15.4265 0.776474 15.5169 0.507689 15.6779 0.309511C15.8388 0.111334 16.0571 0 16.2847 0C16.5123 0 16.7306 0.111334 16.8915 0.309511L23.7482 8.75277C23.828 8.85081 23.8913 8.96728 23.9346 9.0955C23.9778 9.22372 24 9.36118 24 9.5C24 9.63882 23.9778 9.77628 23.9346 9.9045C23.8913 10.0327 23.828 10.1492 23.7482 10.2472L16.8915 18.6905C16.7306 18.8887 16.5123 19 16.2847 19C16.0571 19 15.8388 18.8887 15.6779 18.6905C15.5169 18.4923 15.4265 18.2235 15.4265 17.9433C15.4265 17.663 15.5169 17.3942 15.6779 17.196L21.0724 10.5554H0.857088C0.629774 10.5554 0.41177 10.4442 0.251035 10.2463C0.0903001 10.0484 0 9.77991 0 9.5Z" fill="#FFDD00"/>
</svg>
