<svg width="24" height="25" viewBox="0 0 24 25" fill="none" xmlns="http://www.w3.org/2000/svg">
<path d="M12.7646 4.86629L8.30123 9.43919C8.00314 9.7446 7.83395 10.1656 7.83395 10.6031V18.8491C7.83395 19.7571 8.55904 20.5 9.44527 20.5H16.6962C17.3407 20.5 17.9208 20.1038 18.1786 19.5012L20.805 13.2197C21.4818 11.5853 20.3136 9.76937 18.5814 9.76937H14.0295L14.7948 5.98888C14.8754 5.57617 14.7546 5.15519 14.4645 4.85804C13.9892 4.37929 13.2319 4.37929 12.7646 4.86629ZM4.61132 20.5C5.49754 20.5 6.22263 19.7571 6.22263 18.8491V12.2457C6.22263 11.3377 5.49754 10.5948 4.61132 10.5948C3.72509 10.5948 3 11.3377 3 12.2457V18.8491C3 19.7571 3.72509 20.5 4.61132 20.5Z" fill="#222222"/>
</svg>
