<svg width="28" height="20" viewBox="0 0 28 20" fill="none" xmlns="http://www.w3.org/2000/svg">
<path fill-rule="evenodd" clip-rule="evenodd" d="M28 10C28 9.72009 27.8946 9.45164 27.7071 9.25371C27.5196 9.05579 27.2653 8.94459 27.0001 8.94459L3.41557 8.94459L9.70917 2.30397C9.89693 2.10579 10.0024 1.837 10.0024 1.55674C10.0024 1.27647 9.89693 1.00769 9.70917 0.809511C9.52141 0.611333 9.26675 0.499999 9.00121 0.499999C8.73568 0.499999 8.48102 0.611333 8.29326 0.809511L0.293769 9.25277C0.200648 9.35081 0.126768 9.46728 0.0763581 9.5955C0.0259484 9.72372 3.52506e-07 9.86118 3.52506e-07 10C3.52506e-07 10.1388 0.0259484 10.2763 0.0763581 10.4045C0.126768 10.5327 0.200648 10.6492 0.293769 10.7472L8.29326 19.1905C8.48102 19.3887 8.73568 19.5 9.00121 19.5C9.26675 19.5 9.52141 19.3887 9.70917 19.1905C9.89693 18.9923 10.0024 18.7235 10.0024 18.4433C10.0024 18.163 9.89693 17.8942 9.70917 17.696L3.41557 11.0554L27.0001 11.0554C27.2653 11.0554 27.5196 10.9442 27.7071 10.7463C27.8946 10.5484 28 10.2799 28 10V10Z" fill="black"/>
</svg>
